<svg width="180" height="53" viewBox="0 0 180 53" fill="none" xmlns="http://www.w3.org/2000/svg">
<path d="M179 46.7106C179 49.4818 176.709 51.7265 173.874 51.7265H6.13243C3.2995 51.7265 1 49.4818 1 46.7106V6.71109C1 3.94126 3.2995 1.68872 6.13243 1.68872H173.873C176.709 1.68872 178.999 3.94126 178.999 6.71109L179 46.7106Z" fill="black"/>
<path d="M173.333 1.74914C176.42 1.74914 178.932 4.19802 178.932 7.20752V46.2075C178.932 49.217 176.42 51.6659 173.333 51.6659H6.66667C3.58 51.6659 1.06833 49.217 1.06833 46.2075V7.20752C1.06833 4.19802 3.58 1.74914 6.66667 1.74914H173.333ZM173.333 0.707522H6.66667C3.00167 0.707522 0 3.63415 0 7.20752V46.2075C0 49.7809 3.00167 52.7075 6.66667 52.7075H173.333C176.998 52.7075 180 49.7809 180 46.2075V7.20752C180 3.63415 176.998 0.707522 173.333 0.707522Z" fill="#A6A6A6"/>
<path d="M40.1707 26.4266C40.132 22.2367 43.6894 20.1983 43.852 20.1034C41.8374 17.2395 38.7147 16.8482 37.6174 16.817C34.9947 16.5479 32.4507 18.3471 31.1147 18.3471C29.752 18.3471 27.6947 16.843 25.4774 16.8872C22.624 16.9301 19.9547 18.5408 18.4907 21.042C15.4694 26.1419 17.7227 33.6364 20.6174 37.7587C22.0654 39.7776 23.7574 42.0318 25.972 41.9525C28.1387 41.8654 28.948 40.6057 31.5627 40.6057C34.1534 40.6057 34.9134 41.9525 37.172 41.9018C39.4974 41.8654 40.9614 39.8738 42.3587 37.8367C44.032 35.5227 44.704 33.2438 44.7307 33.1268C44.676 33.1086 40.2147 31.4485 40.1707 26.4266Z" fill="white"/>
<path d="M35.904 14.1052C37.0694 12.6844 37.8667 10.7513 37.6454 8.78955C35.9587 8.86235 33.8494 9.92705 32.6347 11.3168C31.56 12.5414 30.6 14.5485 30.848 16.4361C32.7427 16.5739 34.688 15.504 35.904 14.1052Z" fill="white"/>
<path d="M71.5266 41.6627H68.4986L66.84 36.581H61.0746L59.4946 41.6627H56.5466L62.2586 24.3623H65.7866L71.5266 41.6627ZM66.34 34.449L64.84 29.9315C64.6813 29.47 64.384 28.3832 63.9453 26.6724H63.892C63.7173 27.4082 63.436 28.495 63.0493 29.9315L61.576 34.449H66.34Z" fill="white"/>
<path d="M86.216 35.272C86.216 37.3936 85.628 39.0706 84.452 40.3017C83.3987 41.3976 82.0907 41.9449 80.5293 41.9449C78.844 41.9449 77.6333 41.3547 76.896 40.1743H76.8427V46.7458H74V33.2947C74 31.9609 73.964 30.592 73.8947 29.188H76.3947L76.5533 31.1653H76.6067C77.5547 29.6755 78.9933 28.9319 80.924 28.9319C82.4333 28.9319 83.6933 29.513 84.7013 30.6765C85.712 31.8413 86.216 33.3727 86.216 35.272ZM83.32 35.3734C83.32 34.1592 83.04 33.1582 82.4773 32.3704C81.8627 31.5488 81.0373 31.138 80.0027 31.138C79.3013 31.138 78.664 31.3668 78.0947 31.8179C77.524 32.2729 77.1506 32.867 76.976 33.6028C76.888 33.946 76.844 34.2268 76.844 34.4478V36.5278C76.844 37.4352 77.1293 38.2009 77.7 38.8262C78.2707 39.4515 79.012 39.7635 79.924 39.7635C80.9947 39.7635 81.828 39.3605 82.424 38.5571C83.0213 37.7524 83.32 36.6916 83.32 35.3734Z" fill="white"/>
<path d="M100.932 35.272C100.932 37.3936 100.344 39.0706 99.1666 40.3017C98.1146 41.3976 96.8066 41.9449 95.2453 41.9449C93.5599 41.9449 92.3493 41.3547 91.6133 40.1743H91.5599V46.7458H88.7173V33.2947C88.7173 31.9609 88.6813 30.592 88.6119 29.188H91.1119L91.2706 31.1653H91.3239C92.2706 29.6755 93.7093 28.9319 95.6413 28.9319C97.1493 28.9319 98.4093 29.513 99.4199 30.6765C100.427 31.8413 100.932 33.3727 100.932 35.272ZM98.0359 35.3734C98.0359 34.1592 97.7546 33.1582 97.1919 32.3704C96.5773 31.5488 95.7546 31.138 94.7186 31.138C94.0159 31.138 93.3799 31.3668 92.8093 31.8179C92.2386 32.2729 91.8666 32.867 91.6919 33.6028C91.6053 33.946 91.5599 34.2268 91.5599 34.4478V36.5278C91.5599 37.4352 91.8453 38.2009 92.4133 38.8262C92.9839 39.4502 93.7253 39.7635 94.6399 39.7635C95.7106 39.7635 96.5439 39.3605 97.1399 38.5571C97.7373 37.7524 98.0359 36.6916 98.0359 35.3734Z" fill="white"/>
<path d="M117.385 36.8112C117.385 38.2828 116.861 39.4801 115.809 40.4044C114.653 41.4145 113.044 41.9189 110.976 41.9189C109.067 41.9189 107.536 41.5601 106.377 40.8412L107.036 38.5311C108.284 39.2669 109.653 39.6361 111.145 39.6361C112.216 39.6361 113.049 39.3995 113.648 38.9289C114.244 38.4583 114.541 37.8265 114.541 37.0387C114.541 36.3367 114.296 35.7452 113.804 35.2655C113.315 34.7858 112.497 34.3399 111.356 33.9278C108.249 32.7981 106.697 31.1432 106.697 28.967C106.697 27.5448 107.241 26.3787 108.331 25.4713C109.416 24.5626 110.864 24.1089 112.675 24.1089C114.289 24.1089 115.631 24.3832 116.701 24.9305L115.991 27.1899C114.991 26.6595 113.86 26.3943 112.595 26.3943C111.595 26.3943 110.813 26.6348 110.253 27.1132C109.78 27.5409 109.543 28.0622 109.543 28.6797C109.543 29.3635 109.813 29.929 110.357 30.3736C110.831 30.7844 111.691 31.229 112.939 31.7087C114.465 32.308 115.587 33.0087 116.308 33.8121C117.027 34.6129 117.385 35.6152 117.385 36.8112Z" fill="white"/>
<path d="M126.784 31.2679H123.651V37.3246C123.651 38.8651 124.203 39.6347 125.309 39.6347C125.817 39.6347 126.239 39.5918 126.572 39.506L126.651 41.6107C126.091 41.8148 125.353 41.9175 124.44 41.9175C123.317 41.9175 122.44 41.5834 121.807 40.9165C121.176 40.2483 120.859 39.1277 120.859 37.5534V31.2653H118.992V29.1853H120.859V26.9012L123.651 26.0796V29.1853H126.784V31.2679Z" fill="white"/>
<path d="M140.921 35.3226C140.921 37.2401 140.359 38.8144 139.236 40.0455C138.059 41.313 136.496 41.9448 134.548 41.9448C132.671 41.9448 131.176 41.3377 130.061 40.1235C128.947 38.9093 128.389 37.3766 128.389 35.5293C128.389 33.5962 128.963 32.0128 130.113 30.7817C131.261 29.5493 132.811 28.9331 134.759 28.9331C136.636 28.9331 138.147 29.5402 139.287 30.7557C140.377 31.9348 140.921 33.4571 140.921 35.3226ZM137.972 35.4123C137.972 34.2618 137.72 33.2751 137.209 32.4522C136.613 31.4564 135.761 30.9598 134.657 30.9598C133.515 30.9598 132.647 31.4577 132.051 32.4522C131.54 33.2764 131.288 34.2787 131.288 35.4643C131.288 36.6148 131.54 37.6015 132.051 38.4231C132.665 39.4189 133.524 39.9155 134.632 39.9155C135.717 39.9155 136.569 39.4085 137.184 38.3971C137.708 37.5586 137.972 36.5615 137.972 35.4123Z" fill="white"/>
<path d="M150.161 31.6255C149.88 31.5748 149.58 31.5488 149.265 31.5488C148.265 31.5488 147.492 31.9167 146.948 32.6538C146.475 33.3038 146.237 34.1254 146.237 35.1173V41.6628H143.396L143.423 33.1166C143.423 31.6788 143.387 30.3697 143.316 29.1893H145.792L145.896 31.5761H145.975C146.275 30.7558 146.748 30.0954 147.396 29.6001C148.029 29.1542 148.713 28.9319 149.451 28.9319C149.713 28.9319 149.951 28.9501 150.161 28.9826V31.6255Z" fill="white"/>
<path d="M162.875 34.8351C162.875 35.3317 162.841 35.7503 162.771 36.0922H154.243C154.276 37.3246 154.688 38.2671 155.48 38.9171C156.199 39.4982 157.128 39.7894 158.269 39.7894C159.532 39.7894 160.684 39.5931 161.72 39.1992L162.165 41.1232C160.955 41.638 159.525 41.8941 157.876 41.8941C155.892 41.8941 154.335 41.3247 153.201 40.1872C152.071 39.0497 151.504 37.5222 151.504 35.606C151.504 33.7249 152.031 32.1584 153.085 30.9091C154.189 29.5753 155.681 28.9084 157.559 28.9084C159.403 28.9084 160.799 29.5753 161.747 30.9091C162.497 31.9686 162.875 33.279 162.875 34.8351ZM160.164 34.1162C160.183 33.2946 159.997 32.5848 159.612 31.9855C159.12 31.2146 158.364 30.8298 157.347 30.8298C156.417 30.8298 155.661 31.2055 155.084 31.9595C154.611 32.5588 154.329 33.2777 154.243 34.1149H160.164V34.1162Z" fill="white"/>
<path d="M65.4 13.7191C65.4 15.2492 64.9293 16.401 63.9893 17.1745C63.1186 17.8882 61.8813 18.2457 60.2786 18.2457C59.484 18.2457 58.804 18.2119 58.2346 18.1443V9.78398C58.9773 9.66698 59.7773 9.60718 60.6413 9.60718C62.168 9.60718 63.3186 9.93088 64.0946 10.5783C64.964 11.3102 65.4 12.3567 65.4 13.7191ZM63.9266 13.7568C63.9266 12.7649 63.6573 12.0044 63.1186 11.474C62.58 10.9449 61.7933 10.6797 60.7573 10.6797C60.3173 10.6797 59.9426 10.7083 59.632 10.7681V17.1238C59.804 17.1498 60.1186 17.1615 60.576 17.1615C61.6453 17.1615 62.4706 16.8716 63.052 16.2918C63.6333 15.712 63.9266 14.867 63.9266 13.7568Z" fill="white"/>
<path d="M73.2119 15.0554C73.2119 15.9979 72.9359 16.7701 72.3839 17.3759C71.8052 17.9986 71.0386 18.3093 70.0812 18.3093C69.1586 18.3093 68.4239 18.0116 67.8759 17.4136C67.3292 16.8169 67.0559 16.0642 67.0559 15.1568C67.0559 14.2078 67.3372 13.4291 67.9026 12.8246C68.4679 12.2201 69.2279 11.9172 70.1852 11.9172C71.1079 11.9172 71.8492 12.2149 72.4106 12.8116C72.9439 13.3914 73.2119 14.1402 73.2119 15.0554ZM71.7626 15.0996C71.7626 14.5341 71.6372 14.0492 71.3879 13.6449C71.0946 13.1561 70.6772 12.9117 70.1346 12.9117C69.5732 12.9117 69.1466 13.1561 68.8532 13.6449C68.6026 14.0492 68.4786 14.5419 68.4786 15.1243C68.4786 15.6898 68.6039 16.1747 68.8532 16.579C69.1559 17.0678 69.5772 17.3122 70.1212 17.3122C70.6546 17.3122 71.0732 17.0639 71.3746 16.566C71.6332 16.1539 71.7626 15.6651 71.7626 15.0996Z" fill="white"/>
<path d="M83.6866 12.0422L81.72 18.1704H80.44L79.6253 15.5093C79.4186 14.845 79.2506 14.1846 79.12 13.5294H79.0946C78.9733 14.2028 78.8053 14.8619 78.5893 15.5093L77.724 18.1704H76.4293L74.58 12.0422H76.016L76.7266 14.9555C76.8986 15.6445 77.04 16.301 77.1533 16.9224H77.1786C77.2826 16.4102 77.4546 15.7576 77.6973 14.9685L78.5893 12.0435H79.728L80.5826 14.9061C80.7893 15.6042 80.9573 16.2763 81.0866 16.9237H81.1253C81.22 16.2932 81.3626 15.6211 81.552 14.9061L82.3146 12.0435H83.6866V12.0422Z" fill="white"/>
<path d="M90.9306 18.1702H89.5333V14.6602C89.5333 13.5786 89.1119 13.0378 88.2666 13.0378C87.8519 13.0378 87.5173 13.186 87.2573 13.4837C86.9999 13.7814 86.8693 14.1324 86.8693 14.5341V18.1689H85.4719V13.7931C85.4719 13.2549 85.4546 12.6712 85.4213 12.0394H86.6493L86.7146 12.9975H86.7533C86.9159 12.6998 87.1586 12.4541 87.4773 12.2578C87.8559 12.029 88.2799 11.9133 88.7439 11.9133C89.3306 11.9133 89.8186 12.0979 90.2066 12.4684C90.6892 12.9221 90.9306 13.5994 90.9306 14.499V18.1702Z" fill="white"/>
<path d="M94.7839 18.1703H93.3879V9.23022H94.7839V18.1703Z" fill="white"/>
<path d="M103.011 15.0554C103.011 15.9979 102.735 16.7701 102.183 17.3759C101.604 17.9986 100.836 18.3093 99.88 18.3093C98.956 18.3093 98.2213 18.0116 97.6746 17.4136C97.1279 16.8169 96.8546 16.0642 96.8546 15.1568C96.8546 14.2078 97.136 13.4291 97.7013 12.8246C98.2666 12.2201 99.0266 11.9172 99.9826 11.9172C100.907 11.9172 101.647 12.2149 102.209 12.8116C102.743 13.3914 103.011 14.1402 103.011 15.0554ZM101.56 15.0996C101.56 14.5341 101.435 14.0492 101.185 13.6449C100.893 13.1561 100.475 12.9117 99.9333 12.9117C99.3706 12.9117 98.9439 13.1561 98.6519 13.6449C98.4013 14.0492 98.2773 14.5419 98.2773 15.1243C98.2773 15.6898 98.4026 16.1747 98.6519 16.579C98.9546 17.0678 99.376 17.3122 99.92 17.3122C100.453 17.3122 100.871 17.0639 101.172 16.566C101.432 16.1539 101.56 15.6651 101.56 15.0996Z" fill="white"/>
<path d="M109.773 18.1702H108.519L108.415 17.4643H108.376C107.947 18.0272 107.335 18.3093 106.54 18.3093C105.947 18.3093 105.467 18.1234 105.105 17.7542C104.777 17.4188 104.613 17.0015 104.613 16.5062C104.613 15.7574 104.933 15.1867 105.577 14.7915C106.22 14.3963 107.124 14.2026 108.288 14.2117V14.0973C108.288 13.29 107.853 12.887 106.983 12.887C106.363 12.887 105.816 13.0391 105.344 13.3407L105.06 12.4463C105.644 12.094 106.365 11.9172 107.216 11.9172C108.859 11.9172 109.683 12.7622 109.683 14.4522V16.709C109.683 17.3213 109.713 17.8088 109.773 18.1702ZM108.323 16.0642V15.1191C106.781 15.0931 106.011 15.5052 106.011 16.3541C106.011 16.6739 106.099 16.9131 106.279 17.073C106.459 17.2329 106.688 17.3122 106.961 17.3122C107.268 17.3122 107.555 17.2173 107.816 17.0288C108.079 16.839 108.24 16.5985 108.3 16.3034C108.315 16.2371 108.323 16.1565 108.323 16.0642Z" fill="white"/>
<path d="M117.713 18.1703H116.473L116.408 17.1862H116.369C115.973 17.935 115.299 18.3094 114.351 18.3094C113.593 18.3094 112.963 18.0195 112.463 17.4397C111.963 16.8599 111.713 16.1072 111.713 15.1829C111.713 14.191 111.984 13.3876 112.528 12.774C113.055 12.202 113.7 11.916 114.468 11.916C115.312 11.916 115.903 12.1929 116.239 12.748H116.265V9.23022H117.664V16.5193C117.664 17.116 117.68 17.6659 117.713 18.1703ZM116.265 15.5859V14.5641C116.265 14.3873 116.252 14.2443 116.227 14.1351C116.148 13.8075 115.979 13.5319 115.721 13.3096C115.461 13.0873 115.148 12.9755 114.787 12.9755C114.265 12.9755 113.857 13.177 113.557 13.5813C113.26 13.9856 113.109 14.5017 113.109 15.1322C113.109 15.738 113.252 16.2294 113.539 16.6077C113.841 17.0107 114.249 17.2122 114.76 17.2122C115.219 17.2122 115.585 17.0445 115.864 16.7078C116.133 16.3971 116.265 16.0227 116.265 15.5859Z" fill="white"/>
<path d="M129.664 15.0554C129.664 15.9979 129.388 16.7701 128.836 17.3759C128.257 17.9986 127.492 18.3093 126.533 18.3093C125.612 18.3093 124.877 18.0116 124.328 17.4136C123.781 16.8169 123.508 16.0642 123.508 15.1568C123.508 14.2078 123.789 13.4291 124.355 12.8246C124.92 12.2201 125.68 11.9172 126.639 11.9172C127.56 11.9172 128.303 12.2149 128.863 12.8116C129.396 13.3914 129.664 14.1402 129.664 15.0554ZM128.216 15.0996C128.216 14.5341 128.091 14.0492 127.841 13.6449C127.547 13.1561 127.131 12.9117 126.587 12.9117C126.027 12.9117 125.6 13.1561 125.305 13.6449C125.055 14.0492 124.931 14.5419 124.931 15.1243C124.931 15.6898 125.056 16.1747 125.305 16.579C125.608 17.0678 126.029 17.3122 126.573 17.3122C127.107 17.3122 127.527 17.0639 127.828 16.566C128.085 16.1539 128.216 15.6651 128.216 15.0996Z" fill="white"/>
<path d="M137.177 18.1702H135.781V14.6602C135.781 13.5786 135.36 13.0378 134.513 13.0378C134.099 13.0378 133.764 13.186 133.505 13.4837C133.247 13.7814 133.117 14.1324 133.117 14.5341V18.1689H131.719V13.7931C131.719 13.2549 131.703 12.6712 131.669 12.0394H132.896L132.961 12.9975H133C133.164 12.6998 133.407 12.4541 133.724 12.2578C134.104 12.029 134.527 11.9133 134.992 11.9133C135.577 11.9133 136.065 12.0979 136.453 12.4684C136.937 12.9221 137.177 13.5994 137.177 14.499V18.1702Z" fill="white"/>
<path d="M146.581 13.0626H145.043V16.0396C145.043 16.7962 145.316 17.1745 145.857 17.1745C146.108 17.1745 146.316 17.1537 146.48 17.1108L146.516 18.1443C146.24 18.2457 145.877 18.2964 145.431 18.2964C144.879 18.2964 144.449 18.1326 144.139 17.805C143.827 17.4774 143.672 16.9262 143.672 16.1527V13.0626H142.753V12.0421H143.672V10.9189L145.041 10.5159V12.0408H146.58V13.0626H146.581Z" fill="white"/>
<path d="M153.979 18.1703H152.58V14.6863C152.58 13.5878 152.159 13.0379 151.315 13.0379C150.667 13.0379 150.224 13.3564 149.981 13.9934C149.94 14.1273 149.916 14.2911 149.916 14.4835V18.169H148.52V9.23022H149.916V12.9235H149.943C150.383 12.2514 151.013 11.916 151.831 11.916C152.409 11.916 152.888 12.1006 153.268 12.4711C153.741 12.9326 153.979 13.619 153.979 14.5264V18.1703Z" fill="white"/>
<path d="M161.609 14.8162C161.609 15.0606 161.591 15.266 161.557 15.4337H157.367C157.385 16.0395 157.585 16.501 157.973 16.8208C158.328 17.1068 158.785 17.2498 159.345 17.2498C159.965 17.2498 160.531 17.1536 161.04 16.9599L161.259 17.9063C160.663 18.1585 159.961 18.2846 159.149 18.2846C158.176 18.2846 157.409 18.0051 156.855 17.4461C156.297 16.8871 156.021 16.137 156.021 15.1958C156.021 14.2715 156.279 13.5019 156.797 12.8883C157.339 12.2331 158.071 11.9055 158.995 11.9055C159.899 11.9055 160.585 12.2331 161.049 12.8883C161.424 13.4083 161.609 14.0518 161.609 14.8162ZM160.276 14.4639C160.287 14.0596 160.195 13.7112 160.005 13.4174C159.763 13.0391 159.393 12.8493 158.893 12.8493C158.437 12.8493 158.065 13.0339 157.781 13.4044C157.549 13.6995 157.412 14.0518 157.367 14.4639H160.276Z" fill="white"/>
</svg>
