<svg width="180" height="53" viewBox="0 0 180 53" fill="none" xmlns="http://www.w3.org/2000/svg">
<path d="M173.095 52.7075H6.6575C2.99754 52.7075 0 49.7809 0 46.2075V7.20752C0 3.63415 2.99754 0.707522 6.6575 0.707522H173.095C176.755 0.707522 179.753 3.63415 179.753 7.20752V46.2075C179.753 49.7809 176.755 52.7075 173.095 52.7075Z" fill="black"/>
<path d="M173.095 1.74914C176.177 1.74914 178.686 4.19802 178.686 7.20752V46.2075C178.686 49.217 176.177 51.6659 173.095 51.6659H6.6575C3.57508 51.6659 1.06686 49.217 1.06686 46.2075V7.20752C1.06686 4.19802 3.57508 1.74914 6.6575 1.74914H173.095ZM173.095 0.707522H6.6575C2.99754 0.707522 0 3.63415 0 7.20752V46.2075C0 49.7809 2.99754 52.7075 6.6575 52.7075H173.095C176.755 52.7075 179.753 49.7809 179.753 46.2075V7.20752C179.753 3.63415 176.755 0.707522 173.095 0.707522Z" fill="#A6A6A6"/>
<path d="M63.1364 14.0245C63.1364 15.11 62.8035 15.9793 62.1478 16.6277C61.3938 17.3963 60.4118 17.7831 59.2085 17.7831C58.0584 17.7831 57.0764 17.3898 56.2708 16.6147C55.4636 15.8282 55.0609 14.863 55.0609 13.7076C55.0609 12.5522 55.4636 11.587 56.2708 10.807C57.0764 10.0253 58.0584 9.63208 59.2085 9.63208C59.781 9.63208 60.3269 9.74746 60.8479 9.96196C61.3672 10.1781 61.7899 10.4706 62.0962 10.8313L61.4005 11.5171C60.8662 10.9012 60.1389 10.5973 59.2085 10.5973C58.3696 10.5973 57.6423 10.8833 57.0248 11.4602C56.414 12.0387 56.1077 12.7878 56.1077 13.7076C56.1077 14.6273 56.414 15.383 57.0248 15.9615C57.6423 16.5318 58.3696 16.8243 59.2085 16.8243C60.0989 16.8243 60.8479 16.5318 61.4387 15.955C61.8282 15.5731 62.0496 15.0466 62.1078 14.3738H59.2085V13.4346H63.0765C63.1231 13.6377 63.1364 13.8343 63.1364 14.0245Z" fill="white" stroke="white" stroke-width="0.16" stroke-miterlimit="10"/>
<path d="M69.2729 10.7679H65.6396V13.2379H68.9151V14.1772H65.6396V16.6472H69.2729V17.6043H64.611V9.81079H69.2729V10.7679Z" fill="white" stroke="white" stroke-width="0.16" stroke-miterlimit="10"/>
<path d="M73.6037 17.6043H72.5751V10.7679H70.3465V9.81079H75.8339V10.7679H73.6037V17.6043Z" fill="white" stroke="white" stroke-width="0.16" stroke-miterlimit="10"/>
<path d="M79.8051 17.6043V9.81079H80.832V17.6043H79.8051Z" fill="white" stroke="white" stroke-width="0.16" stroke-miterlimit="10"/>
<path d="M85.3841 17.6043H84.3639V10.7679H82.127V9.81079H87.621V10.7679H85.3841V17.6043Z" fill="white" stroke="white" stroke-width="0.16" stroke-miterlimit="10"/>
<path d="M98.0101 16.6017C97.2229 17.3898 96.2475 17.7831 95.0841 17.7831C93.9141 17.7831 92.9388 17.3898 92.1515 16.6017C91.3659 15.8152 90.9748 14.85 90.9748 13.7076C90.9748 12.5652 91.3659 11.6 92.1515 10.8135C92.9388 10.0253 93.9141 9.63208 95.0841 9.63208C96.2409 9.63208 97.2162 10.0253 98.0035 10.82C98.7957 11.613 99.1868 12.5717 99.1868 13.7076C99.1868 14.85 98.7957 15.8152 98.0101 16.6017ZM92.9121 15.9485C93.5046 16.5318 94.2253 16.8243 95.0841 16.8243C95.9363 16.8243 96.6636 16.5318 97.2495 15.9485C97.8403 15.3651 98.1399 14.616 98.1399 13.7076C98.1399 12.7992 97.8403 12.0501 97.2495 11.4667C96.6636 10.8833 95.9363 10.5908 95.0841 10.5908C94.2253 10.5908 93.5046 10.8833 92.9121 11.4667C92.3213 12.0501 92.0217 12.7992 92.0217 13.7076C92.0217 14.616 92.3213 15.3651 92.9121 15.9485Z" fill="white" stroke="white" stroke-width="0.16" stroke-miterlimit="10"/>
<path d="M100.63 17.6043V9.81079H101.878L105.759 15.872H105.804L105.759 14.3738V9.81079H106.786V17.6043H105.714L101.65 11.244H101.605L101.65 12.7488V17.6043H100.63Z" fill="white" stroke="white" stroke-width="0.16" stroke-miterlimit="10"/>
<path d="M90.7218 28.9858C87.5944 28.9858 85.0396 31.3096 85.0396 34.5157C85.0396 37.6958 87.5944 40.0439 90.7218 40.0439C93.8558 40.0439 96.4106 37.6958 96.4106 34.5157C96.4106 31.3096 93.8558 28.9858 90.7218 28.9858ZM90.7218 37.8664C89.0058 37.8664 87.5295 36.4836 87.5295 34.5157C87.5295 32.5218 89.0058 31.1633 90.7218 31.1633C92.4377 31.1633 93.9207 32.5218 93.9207 34.5157C93.9207 36.4836 92.4377 37.8664 90.7218 37.8664ZM78.3238 28.9858C75.1898 28.9858 72.6417 31.3096 72.6417 34.5157C72.6417 37.6958 75.1898 40.0439 78.3238 40.0439C81.4562 40.0439 84.006 37.6958 84.006 34.5157C84.006 31.3096 81.4562 28.9858 78.3238 28.9858ZM78.3238 37.8664C76.6062 37.8664 75.1249 36.4836 75.1249 34.5157C75.1249 32.5218 76.6062 31.1633 78.3238 31.1633C80.0398 31.1633 81.5161 32.5218 81.5161 34.5157C81.5161 36.4836 80.0398 37.8664 78.3238 37.8664ZM63.5708 30.6807V33.0304H69.3179C69.1498 34.3434 68.7004 35.3087 68.0114 35.9814C67.1725 36.7939 65.866 37.6958 63.5708 37.6958C60.034 37.6958 57.2645 34.9089 57.2645 31.4558C57.2645 28.0027 60.034 25.2158 63.5708 25.2158C65.4832 25.2158 66.8746 25.9454 67.9015 26.8912L69.5975 25.2353C68.1612 23.8963 66.2505 22.8677 63.5708 22.8677C58.7208 22.8677 54.6448 26.7206 54.6448 31.4558C54.6448 36.1911 58.7208 40.0439 63.5708 40.0439C66.1922 40.0439 68.1612 39.2054 69.709 37.6324C71.2952 36.0838 71.7895 33.9063 71.7895 32.1481C71.7895 31.6021 71.7429 31.0999 71.6597 30.6807H63.5708ZM123.898 32.5023C123.43 31.2657 121.987 28.9858 119.048 28.9858C116.135 28.9858 113.71 31.2267 113.71 34.5157C113.71 37.6129 116.11 40.0439 119.327 40.0439C121.929 40.0439 123.43 38.4953 124.048 37.5934L122.117 36.3373C121.473 37.2571 120.596 37.8664 119.327 37.8664C118.067 37.8664 117.164 37.3026 116.584 36.1911L124.159 33.1312L123.898 32.5023ZM116.175 34.3434C116.11 32.2114 117.871 31.1194 119.133 31.1194C120.121 31.1194 120.96 31.6021 121.24 32.2927L116.175 34.3434ZM110.019 39.7076H112.508V23.4576H110.019V39.7076ZM105.941 30.2176H105.858C105.298 29.5708 104.232 28.9858 102.88 28.9858C100.044 28.9858 97.4508 31.4168 97.4508 34.5336C97.4508 37.6324 100.044 40.0439 102.88 40.0439C104.232 40.0439 105.298 39.4541 105.858 38.7878H105.941V39.5808C105.941 41.6949 104.784 42.8308 102.918 42.8308C101.397 42.8308 100.453 41.7583 100.064 40.8564L97.8986 41.7388C98.5227 43.2046 100.175 45.0083 102.918 45.0083C105.838 45.0083 108.301 43.3313 108.301 39.2509V29.3222H105.941V30.2176ZM103.093 37.8664C101.377 37.8664 99.9407 36.4641 99.9407 34.5336C99.9407 32.5852 101.377 31.1633 103.093 31.1633C104.784 31.1633 106.117 32.5852 106.117 34.5336C106.117 36.4641 104.784 37.8664 103.093 37.8664ZM135.555 23.4576H129.6V39.7076H132.083V33.5504H135.555C138.313 33.5504 141.018 31.6021 141.018 28.5032C141.018 25.4059 138.306 23.4576 135.555 23.4576ZM135.62 31.2901H132.083V25.7179H135.62C137.474 25.7179 138.533 27.2211 138.533 28.5032C138.533 29.7609 137.474 31.2901 135.62 31.2901ZM150.97 28.9549C149.176 28.9549 147.311 29.7284 146.543 31.4428L148.747 32.3447C149.221 31.4428 150.093 31.1503 151.015 31.1503C152.304 31.1503 153.61 31.9059 153.63 33.2401V33.4107C153.181 33.1572 152.219 32.7818 151.035 32.7818C148.662 32.7818 146.244 34.0574 146.244 36.4381C146.244 38.6156 148.188 40.0179 150.373 40.0179C152.044 40.0179 152.966 39.2818 153.545 38.4254H153.63V39.6816H156.029V33.4481C156.029 30.5669 153.825 28.9549 150.97 28.9549ZM150.671 37.8599C149.859 37.8599 148.727 37.4667 148.727 36.4836C148.727 35.2258 150.138 34.7432 151.36 34.7432C152.453 34.7432 152.966 34.9788 153.63 35.2892C153.435 36.7939 152.109 37.8599 150.671 37.8599ZM164.766 29.3108L161.912 36.3552H161.827L158.876 29.3108H156.198L160.632 39.1551L158.102 44.6329H160.697L167.529 29.3108H164.766ZM142.382 39.7076H144.872V23.4576H142.382V39.7076Z" fill="white"/>
<path d="M13.8942 10.508C13.5031 10.9077 13.2767 11.5301 13.2767 12.3361V41.0856C13.2767 41.8916 13.5031 42.514 13.8942 42.9137L13.9908 43.0015L30.4914 26.8977V26.5175L13.9908 10.4137L13.8942 10.508Z" fill="url(#paint0_linear)"/>
<path d="M35.9854 32.2683L30.4913 26.8977V26.5174L35.9921 21.1468L36.1153 21.2167L42.6296 24.8356C44.4887 25.8626 44.4887 27.5526 42.6296 28.5861L36.1153 32.1984L35.9854 32.2683Z" fill="url(#paint1_linear)"/>
<path d="M36.1153 32.1985L30.4914 26.7076L13.8942 42.9137C14.5117 43.5475 15.5187 43.6239 16.6637 42.9901L36.1153 32.1985Z" fill="url(#paint2_linear)"/>
<path d="M36.1153 21.2166L16.6637 10.425C15.5187 9.79777 14.5117 9.87415 13.8942 10.5079L30.4914 26.7075L36.1153 21.2166Z" fill="url(#paint3_linear)"/>
<defs>
<linearGradient id="paint0_linear" x1="29.0263" y1="41.385" x2="7.21544" y2="19.0456" gradientUnits="userSpaceOnUse">
<stop stop-color="#00A0FF"/>
<stop offset="0.0066" stop-color="#00A1FF"/>
<stop offset="0.2601" stop-color="#00BEFF"/>
<stop offset="0.5122" stop-color="#00D2FF"/>
<stop offset="0.7604" stop-color="#00DFFF"/>
<stop offset="1" stop-color="#00E3FF"/>
</linearGradient>
<linearGradient id="paint1_linear" x1="45.0505" y1="26.7057" x2="12.8323" y2="26.7057" gradientUnits="userSpaceOnUse">
<stop stop-color="#FFE000"/>
<stop offset="0.4087" stop-color="#FFBD00"/>
<stop offset="0.7754" stop-color="#FFA500"/>
<stop offset="1" stop-color="#FF9C00"/>
</linearGradient>
<linearGradient id="paint2_linear" x1="33.0572" y1="23.7227" x2="3.47987" y2="-6.57132" gradientUnits="userSpaceOnUse">
<stop stop-color="#FF3A44"/>
<stop offset="1" stop-color="#C31162"/>
</linearGradient>
<linearGradient id="paint3_linear" x1="9.71638" y1="52.4785" x2="22.924" y2="38.951" gradientUnits="userSpaceOnUse">
<stop stop-color="#32A071"/>
<stop offset="0.0685" stop-color="#2DA771"/>
<stop offset="0.4762" stop-color="#15CF74"/>
<stop offset="0.8009" stop-color="#06E775"/>
<stop offset="1" stop-color="#00F076"/>
</linearGradient>
</defs>
</svg>
