<svg width="202" height="54" viewBox="0 0 202 54" fill="none" xmlns="http://www.w3.org/2000/svg">
<path d="M57.9652 9.71997H59.6701V40.0114H57.9652V9.71997Z" fill="#FF4600"/>
<path d="M65.4563 18.0514H66.5928L67.1611 20.6228C69.5893 19.08 72.4824 17.6914 75.8404 17.6914C80.2317 17.6914 82.6599 21.0857 82.6599 24.7371V40.0628H80.955V24.7371C80.955 21.6514 78.9918 19.3885 75.8404 19.3885C72.3274 19.3885 70.2609 20.2628 67.1611 21.8571V40.0114H65.4563V18.0514V18.0514Z" fill="#FF4600"/>
<path d="M94.9038 17.7429C96.7637 17.7429 100.432 18.3086 103.118 19.3886V7.56006H104.72V40.0629H103.583L103.066 37.6458C101.982 38.5715 97.7453 40.3201 94.9038 40.3201C88.8593 40.3201 87.3611 34.2515 87.3611 29.1601C87.3611 23.5543 88.6527 17.7429 94.9038 17.7429ZM94.9038 38.5715C98.2102 38.5715 100.845 37.4401 103.066 36.4115V20.6229C100.173 19.9029 98.1069 19.4401 94.9038 19.4401C91.7008 19.4401 89.066 21.1886 89.066 29.1601C89.066 35.9486 91.6491 38.5715 94.9038 38.5715Z" fill="#FF4600"/>
<path d="M110.661 18.0515L116.55 35.2287C117.842 38.8287 120.27 38.2629 120.27 38.2629L127.141 18.0515H128.949L119.237 47.0058L116.912 51.2229H115.93L119.65 40.0629C118.772 40.0115 116.085 39.7544 114.742 35.4858L108.801 18.0515H110.661Z" fill="#FF4600"/>
<path d="M143.002 9.41138C145.171 9.41138 149.408 9.87423 152.301 10.3885V11.6228C152.249 11.6228 146.825 11.1085 143.002 11.1085C137.164 11.1085 134.581 13.8342 134.581 24.8914C134.581 33.4285 136.957 38.5714 143.002 38.5714C147.393 38.5714 152.249 38.1599 152.249 38.1599V39.3428C149.356 39.8571 145.12 40.2685 142.95 40.2685C135.252 40.2685 132.824 33.6857 132.824 24.7885C132.927 15.2742 134.632 9.41138 143.002 9.41138Z" fill="#FF4600"/>
<path d="M155.917 32.2973C155.917 28.8515 158.035 26.7944 161.445 26.7944C161.445 26.7944 171.209 26.8458 171.209 26.7944C171.209 26.7944 171.261 24.0687 171.209 24.0173C171.209 21.2915 170.021 19.2858 166.508 19.2344C163.512 19.183 160.463 19.543 156.589 20.0058V18.8744C159.172 18.2058 162.375 17.6401 166.508 17.5887C169.969 17.5373 172.862 19.3887 172.862 23.9658V39.9601H171.674L171.158 37.2858C171.054 37.2858 165.371 40.1658 161.393 40.1658C158.345 40.1658 155.865 38.2115 155.865 34.7144V32.2973H155.917ZM161.445 38.5715C164.751 38.623 171.209 36.2058 171.209 36.2058V27.9773L161.445 28.4915C158.604 28.5944 157.622 30.2915 157.622 32.4001V34.6115C157.622 37.5944 159.637 38.5715 161.445 38.5715Z" fill="#FF4600"/>
<path d="M178.545 7.61157H180.25V32.1944C180.25 37.6973 182.265 38.1087 183.557 38.3144C183.557 38.3144 186.553 38.8801 186.863 38.8801V40.0116H183.763C180.353 40.0116 178.545 37.8001 178.545 32.1944V7.61157V7.61157Z" fill="#FF4600"/>
<path d="M189.291 7.61157H190.996V32.1944C190.996 37.6973 193.011 38.1087 194.302 38.3144C194.302 38.3144 197.299 38.8801 197.609 38.8801V40.0116H194.509C191.099 40.0116 189.291 37.8001 189.291 32.1944V7.61157V7.61157Z" fill="#FF4600"/>
<path d="M41.3816 34.2514C41.3816 39.6514 36.9903 44.0228 31.5657 44.0228H12.6573C7.23273 44.0228 2.84143 39.6514 2.84143 34.2514V15.4799C2.84143 10.0799 7.23273 5.7085 12.6573 5.7085H31.5141C36.9386 5.7085 41.3299 10.0799 41.3299 15.4799V34.2514H41.3816Z" stroke="#FF4600" stroke-width="2" stroke-miterlimit="10"/>
<path d="M13.5292 14.2738H14.6499L15.2101 16.8241C17.6043 15.2939 20.4568 13.9167 23.7678 13.9167C28.0975 13.9167 30.4917 17.2832 30.4917 20.9046V36.1046H28.8106V20.8536C28.8106 17.7932 26.875 15.5489 23.7678 15.5489C20.3039 15.5489 18.2664 16.416 15.2101 17.9973V36.0027H13.5292V14.2738Z" fill="#FF4600"/>
</svg>
