<svg width="65" height="54" viewBox="0 0 65 54" fill="none" xmlns="http://www.w3.org/2000/svg">
<path d="M38.61 9.27001C40.1133 10.2063 41.3837 11.4728 42.3245 12.9733C43.2654 14.4738 43.852 16.1689 44.04 17.93C45.8784 18.7863 47.9444 19.0251 49.9297 18.6107C51.9149 18.1963 53.713 17.1509 55.0553 15.6307C56.3976 14.1105 57.2123 12.1969 57.3777 10.1756C57.5431 8.15427 57.0503 6.13368 55.9729 4.41546C54.8955 2.69724 53.2914 1.37352 51.3999 0.641932C49.5084 -0.0896593 47.431 -0.18989 45.4778 0.356196C43.5247 0.902281 41.8006 2.06542 40.5628 3.67193C39.325 5.27844 38.64 7.24219 38.61 9.27001ZM32.45 28.52C34.3091 28.52 36.1265 27.9687 37.6724 26.9358C39.2182 25.9029 40.423 24.4348 41.1345 22.7172C41.8459 20.9996 42.0321 19.1096 41.6694 17.2862C41.3067 15.4627 40.4114 13.7878 39.0968 12.4732C37.7822 11.1586 36.1073 10.2633 34.2838 9.90063C32.4604 9.53793 30.5704 9.72408 28.8528 10.4355C27.1352 11.147 25.6671 12.3518 24.6342 13.8976C23.6013 15.4435 23.05 17.2609 23.05 19.12C23.05 21.6131 24.0403 24.004 25.8032 25.7668C27.566 27.5297 29.9569 28.52 32.45 28.52ZM36.45 29.16H28.45C25.2714 29.1732 22.2268 30.4417 19.9792 32.6893C17.7317 34.9369 16.4631 37.9815 16.45 41.16V50.92V51.07L17.13 51.28C22.4177 52.9856 27.9342 53.8758 33.49 53.92C42.34 53.92 47.49 51.4 47.79 51.23L48.41 50.92H48.48V41.2C48.4668 38.0215 47.1983 34.9769 44.9507 32.7293C42.7032 30.4817 39.6585 29.2132 36.48 29.2L36.45 29.16ZM52.01 19.46H44.09C44.0102 22.5175 42.723 25.4189 40.51 27.53C43.4556 28.4075 46.0398 30.2114 47.8791 32.674C49.7183 35.1365 50.7146 38.1264 50.72 41.2V44.2C58.54 43.91 63.04 41.7 63.34 41.55L63.96 41.23H64.03V31.47C64.03 28.2874 62.7657 25.2352 60.5153 22.9847C58.2648 20.7343 55.2126 19.47 52.03 19.47L52.01 19.46ZM16.01 18.82C17.7801 18.8181 19.5135 18.3154 21.01 17.37C21.4631 14.4257 23.027 11.7669 25.38 9.94C25.38 9.77 25.38 9.60001 25.38 9.42001C25.382 7.55804 24.8315 5.73732 23.7983 4.18832C22.7651 2.63932 21.2955 1.43169 19.5757 0.718226C17.8558 0.00476575 15.9629 -0.182445 14.1367 0.180323C12.3104 0.543091 10.6327 1.43951 9.31613 2.75613C7.99952 4.07274 7.10309 5.75036 6.74033 7.57665C6.37756 9.40295 6.56474 11.2958 7.2782 13.0157C7.99166 14.7355 9.19932 16.2051 10.7483 17.2383C12.2973 18.2715 14.118 18.822 15.98 18.82H16.01ZM24.45 27.53C22.2592 25.4331 20.9776 22.561 20.88 19.53C20.58 19.53 20.29 19.53 20 19.53H12C8.82146 19.5432 5.77686 20.8117 3.52927 23.0593C1.28168 25.3068 0.0131618 28.3514 0 31.53V41.29V41.44L0.679993 41.66C5.06023 43.0515 9.59358 43.9044 14.18 44.2V41.2C14.1834 38.1221 15.1797 35.1275 17.0209 32.6611C18.8622 30.1947 21.4501 28.3882 24.4 27.51L24.45 27.53Z" fill="#FF4600"/>
</svg>
