<svg width="60" height="60" viewBox="0 0 60 60" fill="none" xmlns="http://www.w3.org/2000/svg">
<path d="M55.625 45.0939C55.7567 45.0933 55.8873 45.1188 56.0091 45.1689C56.131 45.219 56.2418 45.2927 56.3351 45.3858C56.4285 45.4789 56.5026 45.5896 56.5531 45.7115C56.6037 45.8333 56.6297 45.964 56.6297 46.096V54.9896C56.6297 56.3184 56.1029 57.5928 55.1652 58.5325C54.2275 59.4721 52.9558 60 51.6297 60H5C3.67392 60 2.40215 59.4721 1.46447 58.5325C0.526785 57.5928 0 56.3184 0 54.9896V17.6618C0 16.3329 0.526785 15.0585 1.46447 14.1189C2.40215 13.1792 3.67392 12.6514 5 12.6514H51.625C52.9511 12.6514 54.2229 13.1792 55.1605 14.1189C56.0982 15.0585 56.625 16.3329 56.625 17.6618V26.5553C56.6252 26.687 56.5995 26.8174 56.5493 26.939C56.4991 27.0607 56.4255 27.1713 56.3326 27.2644C56.2397 27.3575 56.1293 27.4313 56.0079 27.4816C55.8865 27.5318 55.7564 27.5576 55.625 27.5574C54.5844 27.5574 52.2047 27.5574 46.3797 27.5574C44.7882 27.5574 43.262 28.1908 42.1365 29.3183C41.011 30.4459 40.3785 31.9752 40.3781 33.5699V39.0814C40.3781 40.6755 41.0098 42.2043 42.1344 43.3318C43.2589 44.4593 44.7842 45.0931 46.375 45.0939C52.2875 45.0939 54.6016 45.0939 55.6203 45.0939H55.625ZM60 33.5668V39.0783C59.9988 40.1407 59.5771 41.1593 58.8276 41.9107C58.0781 42.6621 57.0618 43.085 56.0016 43.0866H46.375C45.3145 43.0854 44.2978 42.6627 43.5479 41.9112C42.7981 41.1598 42.3762 40.141 42.375 39.0783V33.5699C42.3762 32.5072 42.7981 31.4884 43.5479 30.737C44.2978 29.9855 45.3145 29.5628 46.375 29.5616H56C57.0605 29.5628 58.0772 29.9855 58.8271 30.737C59.5769 31.4884 59.9988 32.5072 60 33.5699V33.5668ZM50.125 36.3257C50.1246 36.06 50.0191 35.8054 49.8316 35.6175C49.6442 35.4297 49.3901 35.324 49.125 35.3236H47.625C47.3598 35.3236 47.1054 35.4292 46.9179 35.6171C46.7304 35.805 46.625 36.0599 46.625 36.3257C46.625 36.5914 46.7304 36.8463 46.9179 37.0343C47.1054 37.2222 47.3598 37.3278 47.625 37.3278H49.125C49.3902 37.3278 49.6446 37.2222 49.8321 37.0343C50.0196 36.8463 50.125 36.5914 50.125 36.3257ZM47.575 6.38518L46.6375 6.1096C46.4455 6.05278 46.2409 6.05493 46.0501 6.11578C45.8593 6.17662 45.6911 6.29336 45.5672 6.45094C44.8078 7.41702 44.2281 8.41754 44.1328 9.56211C44.1214 9.70025 44.1386 9.83927 44.1835 9.97038C44.2284 10.1015 44.3 10.2218 44.3937 10.3238C44.4874 10.4258 44.6012 10.5072 44.7278 10.5628C44.8545 10.6185 44.9914 10.6472 45.1297 10.6472H49.3984C49.5452 10.648 49.6903 10.6164 49.8234 10.5545C49.9566 10.4927 50.0744 10.4021 50.1686 10.2894C50.2628 10.1766 50.331 10.0444 50.3683 9.90214C50.4056 9.75992 50.4111 9.6112 50.3844 9.4666C50.2433 8.74365 49.9061 8.07363 49.41 7.53006C48.9139 6.98649 48.2779 6.59037 47.5719 6.38518H47.575ZM42.1266 9.67328C42.1641 8.48173 42.5531 7.42171 43.175 6.39614C43.2548 6.26516 43.3034 6.11752 43.3171 5.96467C43.3308 5.81182 43.3091 5.65787 43.2538 5.51476C43.1985 5.37166 43.111 5.24325 42.9982 5.1395C42.8853 5.03574 42.7501 4.95943 42.6031 4.91649L36.2625 3.03758C36.1137 2.9936 35.9566 2.9855 35.8041 3.01392C35.6516 3.04235 35.5079 3.1065 35.3848 3.20114C35.2617 3.29578 35.1627 3.41823 35.0958 3.55852C35.029 3.6988 34.9961 3.85293 35 4.00835V9.64509C35 9.91086 35.1054 10.1657 35.2929 10.3537C35.4804 10.5416 35.7348 10.6472 36 10.6472H41.1281C41.388 10.6469 41.6376 10.5452 41.8239 10.3637C42.0103 10.1822 42.1188 9.93515 42.1266 9.67484V9.67328ZM17.5 10.6472H18.875C19.0064 10.6474 19.1365 10.6216 19.2579 10.5713C19.3793 10.521 19.4897 10.4472 19.5826 10.3541C19.6755 10.261 19.7491 10.1505 19.7993 10.0288C19.8495 9.90715 19.8752 9.77675 19.875 9.64509V1.00209C19.875 0.736317 19.7696 0.481432 19.5821 0.293504C19.3946 0.105576 19.1402 0 18.875 0H17.5C17.2348 0 16.9804 0.105576 16.7929 0.293504C16.6054 0.481432 16.5 0.736317 16.5 1.00209V9.64509C16.4998 9.77675 16.5255 9.90715 16.5757 10.0288C16.6259 10.1505 16.6995 10.261 16.7924 10.3541C16.8853 10.4472 16.9957 10.521 17.1171 10.5713C17.2385 10.6216 17.3686 10.6474 17.5 10.6472ZM29 0H22.875C22.6099 0.000414097 22.3558 0.106124 22.1684 0.293963C21.9809 0.481801 21.8754 0.736444 21.875 1.00209V9.64509C21.875 9.91086 21.9804 10.1657 22.1679 10.3537C22.3554 10.5416 22.6098 10.6472 22.875 10.6472H32C32.1314 10.6474 32.2615 10.6216 32.3829 10.5713C32.5043 10.521 32.6147 10.4472 32.7076 10.3541C32.8005 10.261 32.8741 10.1505 32.9243 10.0288C32.9745 9.90715 33.0002 9.77675 33 9.64509V4.00835C32.9988 2.94565 32.5769 1.92683 31.8271 1.17539C31.0772 0.42395 30.0605 0.00124317 29 0ZM13.5 0H12.125C11.0641 0 10.0467 0.422309 9.29657 1.17402C8.54643 1.92573 8.125 2.94527 8.125 4.00835V9.64509C8.125 9.91086 8.23036 10.1657 8.41789 10.3537C8.60543 10.5416 8.85978 10.6472 9.125 10.6472H13.5C13.7652 10.6472 14.0196 10.5416 14.2071 10.3537C14.3946 10.1657 14.5 9.91086 14.5 9.64509V1.00209C14.4996 0.736444 14.3941 0.481801 14.2067 0.293963C14.0192 0.106124 13.7651 0.000414097 13.5 0Z" fill="#FF4600"/>
</svg>
